<mxfile host="app.diagrams.net" modified="2024-03-27T21:06:11.825Z" agent="Mozilla/5.0 (Windows NT 10.0; Win64; x64) AppleWebKit/537.36 (KHTML, like Gecko) Chrome/123.0.0.0 Safari/537.36" etag="S0UfiVGGqfKm_RvQrhdn" version="24.2.0" type="google">
  <diagram name="Página-1" id="7ogZM03AZeKMfadvvvwa">
    <mxGraphModel grid="1" page="1" gridSize="10" guides="1" tooltips="1" connect="1" arrows="1" fold="1" pageScale="1" pageWidth="827" pageHeight="1169" background="none" math="0" shadow="1">
      <root>
        <mxCell id="0" />
        <mxCell id="1" parent="0" />
        <mxCell id="B9qtQq5T444P4j3lDMwM-16" style="edgeStyle=orthogonalEdgeStyle;rounded=1;orthogonalLoop=1;jettySize=auto;html=1;exitX=0.5;exitY=1;exitDx=0;exitDy=0;entryX=0.5;entryY=0;entryDx=0;entryDy=0;" edge="1" parent="1">
          <mxGeometry relative="1" as="geometry">
            <mxPoint x="-310.77" y="990" as="targetPoint" />
            <mxPoint x="-310.77" y="50" as="sourcePoint" />
          </mxGeometry>
        </mxCell>
        <mxCell id="B9qtQq5T444P4j3lDMwM-1" value="FLA" style="text;html=1;align=center;verticalAlign=middle;whiteSpace=wrap;rounded=1;" vertex="1" parent="1">
          <mxGeometry x="-340" y="20" width="60" height="30" as="geometry" />
        </mxCell>
        <mxCell id="B9qtQq5T444P4j3lDMwM-17" style="edgeStyle=orthogonalEdgeStyle;rounded=1;orthogonalLoop=1;jettySize=auto;html=1;exitX=0.5;exitY=1;exitDx=0;exitDy=0;entryX=0.5;entryY=0;entryDx=0;entryDy=0;" edge="1" parent="1" source="B9qtQq5T444P4j3lDMwM-2" target="B9qtQq5T444P4j3lDMwM-32">
          <mxGeometry relative="1" as="geometry">
            <mxPoint x="-230" y="960" as="targetPoint" />
          </mxGeometry>
        </mxCell>
        <mxCell id="B9qtQq5T444P4j3lDMwM-2" value="FLU" style="text;html=1;align=center;verticalAlign=middle;whiteSpace=wrap;rounded=1;" vertex="1" parent="1">
          <mxGeometry x="-260" y="20" width="60" height="30" as="geometry" />
        </mxCell>
        <mxCell id="B9qtQq5T444P4j3lDMwM-3" value="&lt;b&gt;&lt;font style=&quot;font-size: 14px;&quot;&gt;S_FLA&lt;/font&gt;&lt;/b&gt;" style="text;html=1;align=center;verticalAlign=middle;whiteSpace=wrap;rounded=1;" vertex="1" parent="1">
          <mxGeometry x="304" y="435" width="60" height="30" as="geometry" />
        </mxCell>
        <mxCell id="B9qtQq5T444P4j3lDMwM-4" value="&lt;b&gt;&lt;font style=&quot;font-size: 14px;&quot;&gt;S_FLU&lt;/font&gt;&lt;/b&gt;" style="text;html=1;align=center;verticalAlign=middle;whiteSpace=wrap;rounded=1;" vertex="1" parent="1">
          <mxGeometry x="294" y="784.89" width="60" height="30" as="geometry" />
        </mxCell>
        <mxCell id="B9qtQq5T444P4j3lDMwM-12" style="edgeStyle=orthogonalEdgeStyle;rounded=1;orthogonalLoop=1;jettySize=auto;html=1;exitX=0.5;exitY=1;exitDx=0;exitDy=0;entryX=0.5;entryY=0;entryDx=0;entryDy=0;" edge="1" parent="1" source="B9qtQq5T444P4j3lDMwM-5" target="B9qtQq5T444P4j3lDMwM-33">
          <mxGeometry relative="1" as="geometry">
            <mxPoint x="-270" y="960" as="targetPoint" />
          </mxGeometry>
        </mxCell>
        <mxCell id="B9qtQq5T444P4j3lDMwM-5" value="GAB" style="text;html=1;align=center;verticalAlign=middle;whiteSpace=wrap;rounded=1;" vertex="1" parent="1">
          <mxGeometry x="-300" y="20" width="60" height="30" as="geometry" />
        </mxCell>
        <mxCell id="B9qtQq5T444P4j3lDMwM-18" style="edgeStyle=orthogonalEdgeStyle;rounded=1;orthogonalLoop=1;jettySize=auto;html=1;exitX=0.5;exitY=1;exitDx=0;exitDy=0;entryX=0.5;entryY=0;entryDx=0;entryDy=0;" edge="1" parent="1" source="B9qtQq5T444P4j3lDMwM-6" target="B9qtQq5T444P4j3lDMwM-34">
          <mxGeometry relative="1" as="geometry">
            <mxPoint x="-191" y="960" as="targetPoint" />
          </mxGeometry>
        </mxCell>
        <mxCell id="B9qtQq5T444P4j3lDMwM-6" value="DEF" style="text;html=1;align=center;verticalAlign=middle;whiteSpace=wrap;rounded=1;" vertex="1" parent="1">
          <mxGeometry x="-221" y="20" width="60" height="30" as="geometry" />
        </mxCell>
        <mxCell id="B9qtQq5T444P4j3lDMwM-8" value="&lt;h1 style=&quot;margin-top: 0px; line-height: 90%; padding-left: 20px;&quot;&gt;&lt;span id=&quot;docs-internal-guid-733098d0-7fff-f6c7-5be4-7a9e29a1f5f7&quot; style=&quot;font-weight:normal;&quot;&gt;&lt;p style=&quot;line-height: 90%; margin-top: 0pt; margin-bottom: 10pt;&quot; dir=&quot;ltr&quot;&gt;&lt;span style=&quot;font-size: 13pt; font-family: Arial, sans-serif; background-color: transparent; font-weight: 700; font-variant-numeric: normal; font-variant-east-asian: normal; font-variant-alternates: normal; font-variant-position: normal; vertical-align: baseline; white-space-collapse: preserve;&quot;&gt;REPRESENTAÇÃO BINÁRIA:&lt;/span&gt;&lt;span style=&quot;font-size: 11pt; font-family: Arial, sans-serif; background-color: transparent; font-variant-numeric: normal; font-variant-east-asian: normal; font-variant-alternates: normal; font-variant-position: normal; vertical-align: baseline; white-space-collapse: preserve;&quot;&gt;&lt;br&gt;&lt;/span&gt;&lt;/p&gt;&lt;p style=&quot;line-height: 90%; margin-top: 0pt; margin-bottom: 10pt;&quot; dir=&quot;ltr&quot;&gt;&lt;span style=&quot;font-size: 11pt; font-family: Arial, sans-serif; background-color: transparent; font-variant-numeric: normal; font-variant-east-asian: normal; font-variant-alternates: normal; font-variant-position: normal; vertical-align: baseline; white-space-collapse: preserve;&quot;&gt;Flamengo ganha:&lt;/span&gt;&lt;/p&gt;&lt;ul style=&quot;margin-top: 0px; margin-bottom: 0px; padding-inline-start: 48px; line-height: 90%;&quot;&gt;&lt;li aria-level=&quot;1&quot; style=&quot;list-style-type: disc; font-size: 11pt; font-family: Arial, sans-serif; background-color: transparent; font-variant-numeric: normal; font-variant-east-asian: normal; font-variant-alternates: normal; font-variant-position: normal; vertical-align: baseline; white-space: pre;&quot; dir=&quot;ltr&quot;&gt;&lt;p role=&quot;presentation&quot; style=&quot;line-height: 90%; margin-top: 0pt; margin-bottom: 0pt;&quot; dir=&quot;ltr&quot;&gt;&lt;span style=&quot;font-size: 11pt; background-color: transparent; font-variant-numeric: normal; font-variant-east-asian: normal; font-variant-alternates: normal; font-variant-position: normal; vertical-align: baseline; text-wrap: wrap;&quot;&gt;FLA = 1&lt;/span&gt;&lt;/p&gt;&lt;/li&gt;&lt;li aria-level=&quot;1&quot; style=&quot;list-style-type: disc; font-size: 11pt; font-family: Arial, sans-serif; background-color: transparent; font-variant-numeric: normal; font-variant-east-asian: normal; font-variant-alternates: normal; font-variant-position: normal; vertical-align: baseline; white-space: pre;&quot; dir=&quot;ltr&quot;&gt;&lt;p role=&quot;presentation&quot; style=&quot;line-height: 90%; margin-top: 0pt; margin-bottom: 10pt;&quot; dir=&quot;ltr&quot;&gt;&lt;span style=&quot;font-size: 11pt; background-color: transparent; font-variant-numeric: normal; font-variant-east-asian: normal; font-variant-alternates: normal; font-variant-position: normal; vertical-align: baseline; text-wrap: wrap;&quot;&gt;FLU = 0&lt;/span&gt;&lt;/p&gt;&lt;/li&gt;&lt;/ul&gt;&lt;p style=&quot;line-height: 90%; margin-top: 0pt; margin-bottom: 10pt;&quot; dir=&quot;ltr&quot;&gt;&lt;span style=&quot;font-size: 11pt; font-family: Arial, sans-serif; background-color: transparent; font-variant-numeric: normal; font-variant-east-asian: normal; font-variant-alternates: normal; font-variant-position: normal; vertical-align: baseline; white-space-collapse: preserve;&quot;&gt;Fluminense ganha:&lt;/span&gt;&lt;/p&gt;&lt;ul style=&quot;margin-top: 0px; margin-bottom: 0px; padding-inline-start: 48px; line-height: 90%;&quot;&gt;&lt;li aria-level=&quot;1&quot; style=&quot;list-style-type: disc; font-size: 11pt; font-family: Arial, sans-serif; background-color: transparent; font-variant-numeric: normal; font-variant-east-asian: normal; font-variant-alternates: normal; font-variant-position: normal; vertical-align: baseline; white-space: pre;&quot; dir=&quot;ltr&quot;&gt;&lt;p role=&quot;presentation&quot; style=&quot;line-height: 90%; margin-top: 0pt; margin-bottom: 0pt;&quot; dir=&quot;ltr&quot;&gt;&lt;span style=&quot;font-size: 11pt; background-color: transparent; font-variant-numeric: normal; font-variant-east-asian: normal; font-variant-alternates: normal; font-variant-position: normal; vertical-align: baseline; text-wrap: wrap;&quot;&gt;FLU = 1&lt;/span&gt;&lt;/p&gt;&lt;/li&gt;&lt;li aria-level=&quot;1&quot; style=&quot;list-style-type: disc; font-size: 11pt; font-family: Arial, sans-serif; background-color: transparent; font-variant-numeric: normal; font-variant-east-asian: normal; font-variant-alternates: normal; font-variant-position: normal; vertical-align: baseline; white-space: pre;&quot; dir=&quot;ltr&quot;&gt;&lt;p role=&quot;presentation&quot; style=&quot;line-height: 90%; margin-top: 0pt; margin-bottom: 10pt;&quot; dir=&quot;ltr&quot;&gt;&lt;span style=&quot;font-size: 11pt; background-color: transparent; font-variant-numeric: normal; font-variant-east-asian: normal; font-variant-alternates: normal; font-variant-position: normal; vertical-align: baseline; text-wrap: wrap;&quot;&gt;FLA = 0&lt;/span&gt;&lt;/p&gt;&lt;/li&gt;&lt;/ul&gt;&lt;p style=&quot;line-height: 90%; margin-top: 0pt; margin-bottom: 10pt;&quot; dir=&quot;ltr&quot;&gt;&lt;span style=&quot;font-size: 11pt; font-family: Arial, sans-serif; background-color: transparent; font-variant-numeric: normal; font-variant-east-asian: normal; font-variant-alternates: normal; font-variant-position: normal; vertical-align: baseline; white-space-collapse: preserve;&quot;&gt;Empate:&lt;/span&gt;&lt;/p&gt;&lt;ul style=&quot;margin-top: 0px; margin-bottom: 0px; padding-inline-start: 48px; line-height: 90%;&quot;&gt;&lt;li aria-level=&quot;1&quot; style=&quot;list-style-type: disc; font-size: 11pt; font-family: Arial, sans-serif; background-color: transparent; font-variant-numeric: normal; font-variant-east-asian: normal; font-variant-alternates: normal; font-variant-position: normal; vertical-align: baseline; white-space: pre;&quot; dir=&quot;ltr&quot;&gt;&lt;p role=&quot;presentation&quot; style=&quot;line-height: 90%; margin-top: 0pt; margin-bottom: 0pt;&quot; dir=&quot;ltr&quot;&gt;&lt;span style=&quot;font-size: 11pt; background-color: transparent; font-variant-numeric: normal; font-variant-east-asian: normal; font-variant-alternates: normal; font-variant-position: normal; vertical-align: baseline; text-wrap: wrap;&quot;&gt;EMP = 1&lt;/span&gt;&lt;/p&gt;&lt;/li&gt;&lt;/ul&gt;&lt;p style=&quot;line-height: 90%; margin-top: 0pt; margin-bottom: 10pt;&quot; dir=&quot;ltr&quot;&gt;&lt;span style=&quot;font-size: 11pt; font-family: Arial, sans-serif; background-color: transparent; font-variant-numeric: normal; font-variant-east-asian: normal; font-variant-alternates: normal; font-variant-position: normal; vertical-align: baseline; white-space-collapse: preserve;&quot;&gt;Gabigol faz gol:&lt;/span&gt;&lt;/p&gt;&lt;ul style=&quot;margin-top: 0px; margin-bottom: 0px; padding-inline-start: 48px; line-height: 90%;&quot;&gt;&lt;li aria-level=&quot;1&quot; style=&quot;list-style-type: disc; font-size: 11pt; font-family: Arial, sans-serif; background-color: transparent; font-variant-numeric: normal; font-variant-east-asian: normal; font-variant-alternates: normal; font-variant-position: normal; vertical-align: baseline; white-space: pre;&quot; dir=&quot;ltr&quot;&gt;&lt;p role=&quot;presentation&quot; style=&quot;line-height: 90%; margin-top: 0pt; margin-bottom: 10pt;&quot; dir=&quot;ltr&quot;&gt;&lt;span style=&quot;font-size: 11pt; background-color: transparent; font-variant-numeric: normal; font-variant-east-asian: normal; font-variant-alternates: normal; font-variant-position: normal; vertical-align: baseline; text-wrap: wrap;&quot;&gt;GAB = 1&lt;/span&gt;&lt;/p&gt;&lt;/li&gt;&lt;/ul&gt;&lt;p style=&quot;line-height: 90%; margin-top: 0pt; margin-bottom: 10pt;&quot; dir=&quot;ltr&quot;&gt;&lt;span style=&quot;font-size: 11pt; font-family: Arial, sans-serif; background-color: transparent; font-variant-numeric: normal; font-variant-east-asian: normal; font-variant-alternates: normal; font-variant-position: normal; vertical-align: baseline; white-space-collapse: preserve;&quot;&gt;Goleiro faz 3 defesas difíceis:&lt;/span&gt;&lt;/p&gt;&lt;ul style=&quot;margin-top: 0px; margin-bottom: 0px; padding-inline-start: 48px; line-height: 90%;&quot;&gt;&lt;li aria-level=&quot;1&quot; style=&quot;list-style-type: disc; font-size: 11pt; font-family: Arial, sans-serif; background-color: transparent; font-variant-numeric: normal; font-variant-east-asian: normal; font-variant-alternates: normal; font-variant-position: normal; vertical-align: baseline; white-space: pre;&quot; dir=&quot;ltr&quot;&gt;&lt;p role=&quot;presentation&quot; style=&quot;line-height: 90%; margin-top: 0pt; margin-bottom: 10pt;&quot; dir=&quot;ltr&quot;&gt;&lt;span style=&quot;font-size: 11pt; background-color: transparent; font-variant-numeric: normal; font-variant-east-asian: normal; font-variant-alternates: normal; font-variant-position: normal; vertical-align: baseline; text-wrap: wrap;&quot;&gt;DEF = 1&lt;/span&gt;&lt;/p&gt;&lt;/li&gt;&lt;/ul&gt;&lt;/span&gt;&lt;/h1&gt;" style="text;html=1;whiteSpace=wrap;overflow=hidden;rounded=1;strokeColor=default;strokeWidth=2;opacity=50;" vertex="1" parent="1">
          <mxGeometry x="-660" y="20" width="300" height="445" as="geometry" />
        </mxCell>
        <mxCell id="B9qtQq5T444P4j3lDMwM-9" value="&lt;h1 style=&quot;margin-top: 0px; line-height: 80%; padding-left: 20px;&quot;&gt;&lt;span style=&quot;font-weight: normal;&quot; id=&quot;docs-internal-guid-733098d0-7fff-f6c7-5be4-7a9e29a1f5f7&quot;&gt;&lt;p style=&quot;line-height: 80%; margin-top: 0pt; margin-bottom: 10pt;&quot; dir=&quot;ltr&quot;&gt;&lt;span style=&quot;font-size: 11pt; font-family: Arial, sans-serif; background-color: transparent; font-variant-numeric: normal; font-variant-east-asian: normal; font-variant-alternates: normal; font-variant-position: normal; vertical-align: baseline; white-space-collapse: preserve;&quot;&gt;&lt;span style=&quot;font-size: 17.3333px; font-weight: 700;&quot;&gt;REPRESENTAÇÃO BINÁRIA:&lt;/span&gt;&lt;br&gt;&lt;/span&gt;&lt;/p&gt;&lt;p style=&quot;line-height: 80%; margin-top: 0pt; margin-bottom: 10pt;&quot; dir=&quot;ltr&quot;&gt;&lt;span style=&quot;font-size: 11pt; font-family: Arial, sans-serif; background-color: transparent; font-variant-numeric: normal; font-variant-east-asian: normal; font-variant-alternates: normal; font-variant-position: normal; vertical-align: baseline; white-space-collapse: preserve;&quot;&gt;Torcedores Flamengo felizes:&lt;/span&gt;&lt;/p&gt;&lt;ul style=&quot;margin-top: 0px; margin-bottom: 0px; padding-inline-start: 48px; line-height: 80%;&quot;&gt;&lt;li style=&quot;list-style-type: disc; font-size: 11pt; font-family: Arial, sans-serif; background-color: transparent; font-variant-numeric: normal; font-variant-east-asian: normal; font-variant-alternates: normal; font-variant-position: normal; vertical-align: baseline; white-space: pre;&quot; aria-level=&quot;1&quot; dir=&quot;ltr&quot;&gt;&lt;p style=&quot;line-height: 80%; margin-top: 0pt; margin-bottom: 0pt;&quot; role=&quot;presentation&quot; dir=&quot;ltr&quot;&gt;&lt;span style=&quot;font-size: 11pt; background-color: transparent; font-variant-numeric: normal; font-variant-east-asian: normal; font-variant-alternates: normal; font-variant-position: normal; vertical-align: baseline; text-wrap: wrap;&quot;&gt;S_FLA = 1&lt;/span&gt;&lt;/p&gt;&lt;/li&gt;&lt;li style=&quot;list-style-type: disc; font-size: 11pt; font-family: Arial, sans-serif; background-color: transparent; font-variant-numeric: normal; font-variant-east-asian: normal; font-variant-alternates: normal; font-variant-position: normal; vertical-align: baseline; white-space: pre;&quot; aria-level=&quot;1&quot; dir=&quot;ltr&quot;&gt;&lt;p style=&quot;line-height: 80%; margin-top: 0pt; margin-bottom: 10pt;&quot; role=&quot;presentation&quot; dir=&quot;ltr&quot;&gt;&lt;span style=&quot;font-size: 11pt; background-color: transparent; font-variant-numeric: normal; font-variant-east-asian: normal; font-variant-alternates: normal; font-variant-position: normal; vertical-align: baseline; text-wrap: wrap;&quot;&gt;S_FLU = 0&lt;/span&gt;&lt;/p&gt;&lt;/li&gt;&lt;/ul&gt;&lt;p style=&quot;line-height: 80%; margin-top: 0pt; margin-bottom: 10pt;&quot; dir=&quot;ltr&quot;&gt;&lt;span style=&quot;font-size: 11pt; font-family: Arial, sans-serif; background-color: transparent; font-variant-numeric: normal; font-variant-east-asian: normal; font-variant-alternates: normal; font-variant-position: normal; vertical-align: baseline; white-space-collapse: preserve;&quot;&gt;Torcedores Fluminense felizes:&lt;/span&gt;&lt;/p&gt;&lt;ul style=&quot;margin-top: 0px; margin-bottom: 0px; padding-inline-start: 48px; line-height: 80%;&quot;&gt;&lt;li style=&quot;list-style-type: disc; font-size: 11pt; font-family: Arial, sans-serif; background-color: transparent; font-variant-numeric: normal; font-variant-east-asian: normal; font-variant-alternates: normal; font-variant-position: normal; vertical-align: baseline; white-space: pre;&quot; aria-level=&quot;1&quot; dir=&quot;ltr&quot;&gt;&lt;p style=&quot;line-height: 80%; margin-top: 0pt; margin-bottom: 0pt;&quot; role=&quot;presentation&quot; dir=&quot;ltr&quot;&gt;&lt;span style=&quot;font-size: 11pt; background-color: transparent; font-variant-numeric: normal; font-variant-east-asian: normal; font-variant-alternates: normal; font-variant-position: normal; vertical-align: baseline; text-wrap: wrap;&quot;&gt;S_FLU = 1&lt;/span&gt;&lt;/p&gt;&lt;/li&gt;&lt;li style=&quot;list-style-type: disc; font-size: 11pt; font-family: Arial, sans-serif; background-color: transparent; font-variant-numeric: normal; font-variant-east-asian: normal; font-variant-alternates: normal; font-variant-position: normal; vertical-align: baseline; white-space: pre;&quot; aria-level=&quot;1&quot; dir=&quot;ltr&quot;&gt;&lt;p style=&quot;line-height: 80%; margin-top: 0pt; margin-bottom: 10pt;&quot; role=&quot;presentation&quot; dir=&quot;ltr&quot;&gt;&lt;span style=&quot;font-size: 11pt; background-color: transparent; font-variant-numeric: normal; font-variant-east-asian: normal; font-variant-alternates: normal; font-variant-position: normal; vertical-align: baseline; text-wrap: wrap;&quot;&gt;S_FLA = 0&lt;/span&gt;&lt;/p&gt;&lt;/li&gt;&lt;/ul&gt;&lt;/span&gt;&lt;/h1&gt;" style="text;html=1;whiteSpace=wrap;overflow=hidden;rounded=1;fillColor=none;gradientColor=none;gradientDirection=south;fillStyle=auto;perimeterSpacing=2;strokeColor=default;opacity=50;" vertex="1" parent="1">
          <mxGeometry x="-76" y="20" width="430" height="210" as="geometry" />
        </mxCell>
        <mxCell id="B9qtQq5T444P4j3lDMwM-10" value="&lt;h1 style=&quot;margin-top: 0px; line-height: 19.2px;&quot;&gt;&lt;span style=&quot;font-weight: normal;&quot; id=&quot;docs-internal-guid-733098d0-7fff-f6c7-5be4-7a9e29a1f5f7&quot;&gt;&lt;p style=&quot;line-height: 19.2px; margin-top: 0pt; margin-bottom: 10pt;&quot; dir=&quot;ltr&quot;&gt;&lt;span style=&quot;font-size: 11pt; font-family: Arial, sans-serif; background-color: transparent; font-variant-numeric: normal; font-variant-east-asian: normal; font-variant-alternates: normal; font-variant-position: normal; vertical-align: baseline; white-space-collapse: preserve;&quot;&gt;Ambos torcedores felizes:&lt;/span&gt;&lt;/p&gt;&lt;ul style=&quot;margin-top: 0px; margin-bottom: 0px; padding-inline-start: 48px; line-height: 19.2px;&quot;&gt;&lt;li style=&quot;list-style-type: disc; font-size: 11pt; font-family: Arial, sans-serif; background-color: transparent; font-variant-numeric: normal; font-variant-east-asian: normal; font-variant-alternates: normal; font-variant-position: normal; vertical-align: baseline; white-space: pre;&quot; aria-level=&quot;1&quot; dir=&quot;ltr&quot;&gt;&lt;p style=&quot;line-height: 11.7333px; margin-top: 0pt; margin-bottom: 0pt;&quot; role=&quot;presentation&quot; dir=&quot;ltr&quot;&gt;&lt;span style=&quot;font-size: 11pt; background-color: transparent; font-variant-numeric: normal; font-variant-east-asian: normal; font-variant-alternates: normal; font-variant-position: normal; vertical-align: baseline; text-wrap: wrap;&quot;&gt;S_FLU = 1&lt;/span&gt;&lt;/p&gt;&lt;/li&gt;&lt;li style=&quot;list-style-type: disc; font-size: 11pt; font-family: Arial, sans-serif; background-color: transparent; font-variant-numeric: normal; font-variant-east-asian: normal; font-variant-alternates: normal; font-variant-position: normal; vertical-align: baseline; white-space: pre;&quot; aria-level=&quot;1&quot; dir=&quot;ltr&quot;&gt;&lt;p style=&quot;line-height: 11.7333px; margin-top: 0pt; margin-bottom: 10pt;&quot; role=&quot;presentation&quot; dir=&quot;ltr&quot;&gt;&lt;span style=&quot;font-size: 11pt; background-color: transparent; font-variant-numeric: normal; font-variant-east-asian: normal; font-variant-alternates: normal; font-variant-position: normal; vertical-align: baseline; text-wrap: wrap;&quot;&gt;S_FLA = 1&lt;/span&gt;&lt;/p&gt;&lt;/li&gt;&lt;/ul&gt;&lt;p style=&quot;line-height: 19.2px; margin-top: 0pt; margin-bottom: 10pt;&quot; dir=&quot;ltr&quot;&gt;&lt;span style=&quot;font-size: 11pt; font-family: Arial, sans-serif; background-color: transparent; font-variant-numeric: normal; font-variant-east-asian: normal; font-variant-alternates: normal; font-variant-position: normal; vertical-align: baseline; white-space-collapse: preserve;&quot;&gt;Ambos torcedores tristes:&lt;/span&gt;&lt;/p&gt;&lt;ul style=&quot;margin-top: 0px; margin-bottom: 0px; padding-inline-start: 48px; line-height: 19.2px;&quot;&gt;&lt;li style=&quot;list-style-type: disc; font-size: 11pt; font-family: Arial, sans-serif; background-color: transparent; font-variant-numeric: normal; font-variant-east-asian: normal; font-variant-alternates: normal; font-variant-position: normal; vertical-align: baseline; white-space: pre;&quot; aria-level=&quot;1&quot; dir=&quot;ltr&quot;&gt;&lt;p style=&quot;line-height: 11.7333px; margin-top: 0pt; margin-bottom: 0pt;&quot; role=&quot;presentation&quot; dir=&quot;ltr&quot;&gt;&lt;span style=&quot;font-size: 11pt; background-color: transparent; font-variant-numeric: normal; font-variant-east-asian: normal; font-variant-alternates: normal; font-variant-position: normal; vertical-align: baseline; text-wrap: wrap;&quot;&gt;S_FLU = 0&lt;/span&gt;&lt;/p&gt;&lt;/li&gt;&lt;li style=&quot;list-style-type: disc; font-size: 11pt; font-family: Arial, sans-serif; background-color: transparent; font-variant-numeric: normal; font-variant-east-asian: normal; font-variant-alternates: normal; font-variant-position: normal; vertical-align: baseline; white-space: pre;&quot; aria-level=&quot;1&quot; dir=&quot;ltr&quot;&gt;&lt;p style=&quot;line-height: 11.7333px; margin-top: 0pt; margin-bottom: 10pt;&quot; role=&quot;presentation&quot; dir=&quot;ltr&quot;&gt;&lt;span style=&quot;font-size: 11pt; background-color: transparent; font-variant-numeric: normal; font-variant-east-asian: normal; font-variant-alternates: normal; font-variant-position: normal; vertical-align: baseline; text-wrap: wrap;&quot;&gt;S_FLA = 0&lt;/span&gt;&lt;/p&gt;&lt;/li&gt;&lt;/ul&gt;&lt;/span&gt;&lt;/h1&gt;" style="text;html=1;whiteSpace=wrap;overflow=hidden;rounded=1;" vertex="1" parent="1">
          <mxGeometry x="164" y="60" width="190" height="180" as="geometry" />
        </mxCell>
        <mxCell id="B9qtQq5T444P4j3lDMwM-19" value="&lt;h1 style=&quot;margin-top: 0px; line-height: 110%; padding-left: 30px;&quot;&gt;&lt;span id=&quot;docs-internal-guid-733098d0-7fff-f6c7-5be4-7a9e29a1f5f7&quot; style=&quot;font-weight:normal;&quot;&gt;&lt;p style=&quot;line-height: 110%; margin-top: 0pt; margin-bottom: 10pt;&quot; dir=&quot;ltr&quot;&gt;&lt;span style=&quot;font-size: 13pt; font-family: Arial, sans-serif; background-color: transparent; font-weight: 700; font-style: normal; font-variant: normal; text-decoration: none; vertical-align: baseline; white-space: pre-wrap;&quot;&gt;CASOS POSSÍVEIS PARA O DESAFIO 1:&lt;/span&gt;&lt;/p&gt;&lt;p style=&quot;line-height: 110%; margin-top: 0pt; margin-bottom: 5px;&quot; dir=&quot;ltr&quot;&gt;&lt;span style=&quot;font-size: 11pt; font-family: Arial, sans-serif; background-color: transparent; font-weight: 400; font-style: normal; font-variant: normal; text-decoration: none; vertical-align: baseline; white-space: pre-wrap;&quot;&gt;Torcedores do FLAMENGO felizes:&lt;/span&gt;&lt;/p&gt;&lt;ol style=&quot;margin-top: 0px; margin-bottom: 0px; padding-inline-start: 48px; line-height: 110%;&quot;&gt;&lt;li aria-level=&quot;1&quot; style=&quot;list-style-type: decimal; font-size: 11pt; font-family: Arial, sans-serif; background-color: transparent; font-weight: 400; font-style: normal; font-variant: normal; text-decoration: none; vertical-align: baseline; white-space: pre;&quot; dir=&quot;ltr&quot;&gt;&lt;p role=&quot;presentation&quot; style=&quot;line-height: 110%; margin-top: 0pt; margin-bottom: 0pt;&quot; dir=&quot;ltr&quot;&gt;&lt;span style=&quot;font-size: 11pt; font-family: Arial, sans-serif; background-color: transparent; font-weight: 400; font-style: normal; font-variant: normal; text-decoration: none; vertical-align: baseline; white-space: pre-wrap;&quot;&gt;#FLA ganha&lt;/span&gt;&lt;/p&gt;&lt;/li&gt;&lt;li aria-level=&quot;1&quot; style=&quot;list-style-type: decimal; font-size: 11pt; font-family: Arial, sans-serif; background-color: transparent; font-weight: 400; font-style: normal; font-variant: normal; text-decoration: none; vertical-align: baseline; white-space: pre;&quot; dir=&quot;ltr&quot;&gt;&lt;p role=&quot;presentation&quot; style=&quot;line-height: 110%; margin-top: 0pt; margin-bottom: 0pt;&quot; dir=&quot;ltr&quot;&gt;&lt;span style=&quot;font-size: 11pt; font-family: Arial, sans-serif; background-color: transparent; font-weight: 400; font-style: normal; font-variant: normal; text-decoration: none; vertical-align: baseline; white-space: pre-wrap;&quot;&gt;#FLA ganha + Gabigol faz gol&lt;/span&gt;&lt;/p&gt;&lt;/li&gt;&lt;li aria-level=&quot;1&quot; style=&quot;list-style-type: decimal; font-size: 11pt; font-family: Arial, sans-serif; background-color: transparent; font-weight: 400; font-style: normal; font-variant: normal; text-decoration: none; vertical-align: baseline; white-space: pre;&quot; dir=&quot;ltr&quot;&gt;&lt;p role=&quot;presentation&quot; style=&quot;line-height: 110%; margin-top: 0pt; margin-bottom: 0pt;&quot; dir=&quot;ltr&quot;&gt;&lt;span style=&quot;font-size: 11pt; font-family: Arial, sans-serif; background-color: transparent; font-weight: 400; font-style: normal; font-variant: normal; text-decoration: none; vertical-align: baseline; white-space: pre-wrap;&quot;&gt;#FLA ganha + 3 Defesas&lt;/span&gt;&lt;/p&gt;&lt;/li&gt;&lt;li aria-level=&quot;1&quot; style=&quot;list-style-type: decimal; font-size: 11pt; font-family: Arial, sans-serif; background-color: transparent; font-weight: 400; font-style: normal; font-variant: normal; text-decoration: none; vertical-align: baseline; white-space: pre;&quot; dir=&quot;ltr&quot;&gt;&lt;p role=&quot;presentation&quot; style=&quot;line-height: 110%; margin-top: 0pt; margin-bottom: 0pt;&quot; dir=&quot;ltr&quot;&gt;&lt;span style=&quot;font-size: 11pt; font-family: Arial, sans-serif; background-color: transparent; font-weight: 400; font-style: normal; font-variant: normal; text-decoration: none; vertical-align: baseline; white-space: pre-wrap;&quot;&gt;#Empate + Gabigol faz gol &lt;/span&gt;&lt;/p&gt;&lt;/li&gt;&lt;li aria-level=&quot;1&quot; style=&quot;list-style-type: decimal; font-size: 11pt; font-family: Arial, sans-serif; background-color: transparent; font-weight: 400; font-style: normal; font-variant: normal; text-decoration: none; vertical-align: baseline; white-space: pre;&quot; dir=&quot;ltr&quot;&gt;&lt;p role=&quot;presentation&quot; style=&quot;line-height: 110%; margin-top: 0pt; margin-bottom: 10pt;&quot; dir=&quot;ltr&quot;&gt;&lt;span style=&quot;font-size: 11pt; font-family: Arial, sans-serif; background-color: transparent; font-weight: 400; font-style: normal; font-variant: normal; text-decoration: none; vertical-align: baseline; white-space: pre-wrap;&quot;&gt;#Empate + Gabigol faz gol + 3 Defesas&lt;/span&gt;&lt;/p&gt;&lt;/li&gt;&lt;/ol&gt;&lt;p style=&quot;line-height: 110%; margin-top: 0pt; margin-bottom: 5px;&quot; dir=&quot;ltr&quot;&gt;&lt;span style=&quot;font-size: 11pt; font-family: Arial, sans-serif; background-color: transparent; font-weight: 400; font-style: normal; font-variant: normal; text-decoration: none; vertical-align: baseline; white-space: pre-wrap;&quot;&gt;Torcedores do FLUMINENSE felizes:&lt;/span&gt;&lt;/p&gt;&lt;ol style=&quot;margin-top: 0px; margin-bottom: 0px; padding-inline-start: 48px; line-height: 110%;&quot;&gt;&lt;li aria-level=&quot;1&quot; style=&quot;list-style-type: decimal; font-size: 11pt; font-family: Arial, sans-serif; background-color: transparent; font-weight: 400; font-style: normal; font-variant: normal; text-decoration: none; vertical-align: baseline; white-space: pre;&quot; dir=&quot;ltr&quot;&gt;&lt;p role=&quot;presentation&quot; style=&quot;line-height: 110%; margin-top: 0pt; margin-bottom: 0pt;&quot; dir=&quot;ltr&quot;&gt;&lt;span style=&quot;font-size: 11pt; font-family: Arial, sans-serif; background-color: transparent; font-weight: 400; font-style: normal; font-variant: normal; text-decoration: none; vertical-align: baseline; white-space: pre-wrap;&quot;&gt;#FLU ganha&lt;/span&gt;&lt;/p&gt;&lt;/li&gt;&lt;li aria-level=&quot;1&quot; style=&quot;list-style-type: decimal; font-size: 11pt; font-family: Arial, sans-serif; background-color: transparent; font-weight: 400; font-style: normal; font-variant: normal; text-decoration: none; vertical-align: baseline; white-space: pre;&quot; dir=&quot;ltr&quot;&gt;&lt;p role=&quot;presentation&quot; style=&quot;line-height: 110%; margin-top: 0pt; margin-bottom: 0pt;&quot; dir=&quot;ltr&quot;&gt;&lt;span style=&quot;font-size: 11pt; font-family: Arial, sans-serif; background-color: transparent; font-weight: 400; font-style: normal; font-variant: normal; text-decoration: none; vertical-align: baseline; white-space: pre-wrap;&quot;&gt;#FLU ganha + 3 Defesas&lt;/span&gt;&lt;/p&gt;&lt;/li&gt;&lt;li aria-level=&quot;1&quot; style=&quot;list-style-type: decimal; font-size: 11pt; font-family: Arial, sans-serif; background-color: transparent; font-weight: 400; font-style: normal; font-variant: normal; text-decoration: none; vertical-align: baseline; white-space: pre;&quot; dir=&quot;ltr&quot;&gt;&lt;p role=&quot;presentation&quot; style=&quot;line-height: 110%; margin-top: 0pt; margin-bottom: 0pt;&quot; dir=&quot;ltr&quot;&gt;&lt;span style=&quot;font-size: 11pt; font-family: Arial, sans-serif; background-color: transparent; font-weight: 400; font-style: normal; font-variant: normal; text-decoration: none; vertical-align: baseline; white-space: pre-wrap;&quot;&gt;#FLU ganha + Gabigol faz gol&lt;/span&gt;&lt;/p&gt;&lt;/li&gt;&lt;li aria-level=&quot;1&quot; style=&quot;list-style-type: decimal; font-size: 11pt; font-family: Arial, sans-serif; background-color: transparent; font-weight: 400; font-style: normal; font-variant: normal; text-decoration: none; vertical-align: baseline; white-space: pre;&quot; dir=&quot;ltr&quot;&gt;&lt;p role=&quot;presentation&quot; style=&quot;line-height: 110%; margin-top: 0pt; margin-bottom: 10pt;&quot; dir=&quot;ltr&quot;&gt;&lt;span style=&quot;font-size: 11pt; font-family: Arial, sans-serif; background-color: transparent; font-weight: 400; font-style: normal; font-variant: normal; text-decoration: none; vertical-align: baseline; white-space: pre-wrap;&quot;&gt;#FLU ganha + Gabigol faz gol + 3 Defesas&lt;/span&gt;&lt;/p&gt;&lt;/li&gt;&lt;/ol&gt;&lt;p style=&quot;line-height: 110%; margin-top: 0pt; margin-bottom: 5px;&quot; dir=&quot;ltr&quot;&gt;&lt;span style=&quot;font-size: 11pt; font-family: Arial, sans-serif; background-color: transparent; font-weight: 400; font-style: normal; font-variant: normal; text-decoration: none; vertical-align: baseline; white-space: pre-wrap;&quot;&gt;Torcedores dos dois times felizes:&lt;/span&gt;&lt;/p&gt;&lt;ol style=&quot;margin-top: 0px; margin-bottom: 0px; padding-inline-start: 48px; line-height: 110%;&quot;&gt;&lt;li aria-level=&quot;1&quot; style=&quot;list-style-type: decimal; font-size: 11pt; font-family: Arial, sans-serif; background-color: transparent; font-weight: 400; font-style: normal; font-variant: normal; text-decoration: none; vertical-align: baseline; white-space: pre;&quot; dir=&quot;ltr&quot;&gt;&lt;p role=&quot;presentation&quot; style=&quot;line-height: 110%; margin-top: 0pt; margin-bottom: 0pt;&quot; dir=&quot;ltr&quot;&gt;&lt;span style=&quot;font-size: 11pt; font-family: Arial, sans-serif; background-color: transparent; font-weight: 400; font-style: normal; font-variant: normal; text-decoration: none; vertical-align: baseline; white-space: pre-wrap;&quot;&gt;#FLA ganha + 3 Defesas&lt;/span&gt;&lt;/p&gt;&lt;/li&gt;&lt;li aria-level=&quot;1&quot; style=&quot;list-style-type: decimal; font-size: 11pt; font-family: Arial, sans-serif; background-color: transparent; font-weight: 400; font-style: normal; font-variant: normal; text-decoration: none; vertical-align: baseline; white-space: pre;&quot; dir=&quot;ltr&quot;&gt;&lt;p role=&quot;presentation&quot; style=&quot;line-height: 110%; margin-top: 0pt; margin-bottom: 10pt;&quot; dir=&quot;ltr&quot;&gt;&lt;span style=&quot;font-size: 11pt; font-family: Arial, sans-serif; background-color: transparent; font-weight: 400; font-style: normal; font-variant: normal; text-decoration: none; vertical-align: baseline; white-space: pre-wrap;&quot;&gt;#FLA ganha + Gabigol faz gol + 3 Defesas&lt;/span&gt;&lt;/p&gt;&lt;/li&gt;&lt;/ol&gt;&lt;p style=&quot;line-height: 110%; margin-top: 0pt; margin-bottom: 1px;&quot; dir=&quot;ltr&quot;&gt;&lt;span style=&quot;font-size: 11pt; font-family: Arial, sans-serif; background-color: transparent; font-weight: 400; font-style: normal; font-variant: normal; text-decoration: none; vertical-align: baseline; white-space: pre-wrap;&quot;&gt;Torcedores dos dois times tristes: &lt;/span&gt;&lt;/p&gt;&lt;p style=&quot;line-height: 110%; margin-top: 0pt; margin-bottom: 10pt;&quot; dir=&quot;ltr&quot;&gt;&lt;/p&gt;&lt;ol style=&quot;margin-top: 0px; margin-bottom: 0px; padding-inline-start: 48px; line-height: 110%;&quot;&gt;&lt;li aria-level=&quot;1&quot; style=&quot;list-style-type: decimal; font-size: 11pt; font-family: Arial, sans-serif; background-color: transparent; font-weight: 400; font-style: normal; font-variant: normal; text-decoration: none; vertical-align: baseline; white-space: pre;&quot; dir=&quot;ltr&quot;&gt;&lt;p role=&quot;presentation&quot; style=&quot;line-height: 110%; margin-top: 0pt; margin-bottom: 2px;&quot; dir=&quot;ltr&quot;&gt;&lt;span style=&quot;font-size: 11pt; font-family: Arial, sans-serif; background-color: transparent; font-weight: 400; font-style: normal; font-variant: normal; text-decoration: none; vertical-align: baseline; white-space: pre-wrap;&quot;&gt;#Empate&lt;/span&gt;&lt;/p&gt;&lt;/li&gt;&lt;li aria-level=&quot;1&quot; style=&quot;list-style-type: decimal; font-size: 11pt; font-family: Arial, sans-serif; background-color: transparent; font-weight: 400; font-style: normal; font-variant: normal; text-decoration: none; vertical-align: baseline; white-space: pre;&quot; dir=&quot;ltr&quot;&gt;&lt;p role=&quot;presentation&quot; style=&quot;line-height: 110%; margin-top: 0pt; margin-bottom: 10pt;&quot; dir=&quot;ltr&quot;&gt;&lt;span style=&quot;font-size: 11pt; font-family: Arial, sans-serif; background-color: transparent; font-weight: 400; font-style: normal; font-variant: normal; text-decoration: none; vertical-align: baseline; white-space: pre-wrap;&quot;&gt;#Empate + 3 Defesas&lt;/span&gt;&lt;/p&gt;&lt;/li&gt;&lt;/ol&gt;&lt;/span&gt;&lt;/h1&gt;" style="text;html=1;whiteSpace=wrap;overflow=hidden;rounded=1;strokeColor=default;strokeWidth=2;opacity=50;" vertex="1" parent="1">
          <mxGeometry x="-770" y="480" width="410" height="540" as="geometry" />
        </mxCell>
        <mxCell id="B9qtQq5T444P4j3lDMwM-29" style="edgeStyle=orthogonalEdgeStyle;rounded=1;orthogonalLoop=1;jettySize=auto;html=1;exitX=1;exitY=0.5;exitDx=0;exitDy=0;exitPerimeter=0;endArrow=none;endFill=0;entryX=0;entryY=0.125;entryDx=0;entryDy=0;entryPerimeter=0;" edge="1" parent="1" source="B9qtQq5T444P4j3lDMwM-23" target="B9qtQq5T444P4j3lDMwM-69">
          <mxGeometry relative="1" as="geometry">
            <mxPoint x="4" y="321" as="sourcePoint" />
            <mxPoint x="184" y="430" as="targetPoint" />
            <Array as="points">
              <mxPoint x="94" y="320" />
              <mxPoint x="94" y="428" />
            </Array>
          </mxGeometry>
        </mxCell>
        <mxCell id="B9qtQq5T444P4j3lDMwM-63" style="edgeStyle=orthogonalEdgeStyle;rounded=1;orthogonalLoop=1;jettySize=auto;html=1;exitX=0;exitY=0.75;exitDx=0;exitDy=0;exitPerimeter=0;endArrow=oval;endFill=1;" edge="1" parent="1" source="B9qtQq5T444P4j3lDMwM-23">
          <mxGeometry relative="1" as="geometry">
            <mxPoint x="-270" y="335" as="targetPoint" />
            <mxPoint x="-100" y="335" as="sourcePoint" />
          </mxGeometry>
        </mxCell>
        <mxCell id="B9qtQq5T444P4j3lDMwM-64" style="edgeStyle=orthogonalEdgeStyle;rounded=1;orthogonalLoop=1;jettySize=auto;html=1;exitX=0;exitY=0.25;exitDx=0;exitDy=0;exitPerimeter=0;endArrow=oval;endFill=1;" edge="1" parent="1" source="B9qtQq5T444P4j3lDMwM-23">
          <mxGeometry relative="1" as="geometry">
            <mxPoint x="-156" y="305" as="targetPoint" />
          </mxGeometry>
        </mxCell>
        <mxCell id="B9qtQq5T444P4j3lDMwM-23" value="CHECA_EMPATE + GAB" style="verticalLabelPosition=bottom;shadow=0;dashed=0;align=center;html=1;verticalAlign=top;shape=mxgraph.electrical.logic_gates.logic_gate;operation=and;numInputs=2;rounded=1;" vertex="1" parent="1">
          <mxGeometry x="-96" y="290" width="100" height="60" as="geometry" />
        </mxCell>
        <mxCell id="B9qtQq5T444P4j3lDMwM-77" style="edgeStyle=orthogonalEdgeStyle;rounded=1;orthogonalLoop=1;jettySize=auto;html=1;exitX=0;exitY=0.25;exitDx=0;exitDy=0;exitPerimeter=0;endArrow=oval;endFill=1;" edge="1" parent="1" source="B9qtQq5T444P4j3lDMwM-30">
          <mxGeometry relative="1" as="geometry">
            <mxPoint x="-190" y="835.1111111111111" as="targetPoint" />
            <mxPoint x="-100" y="835" as="sourcePoint" />
          </mxGeometry>
        </mxCell>
        <mxCell id="B9qtQq5T444P4j3lDMwM-78" style="edgeStyle=orthogonalEdgeStyle;rounded=1;orthogonalLoop=1;jettySize=auto;html=1;exitX=0;exitY=0.75;exitDx=0;exitDy=0;exitPerimeter=0;endArrow=oval;endFill=1;" edge="1" parent="1" source="B9qtQq5T444P4j3lDMwM-30">
          <mxGeometry relative="1" as="geometry">
            <mxPoint x="-310" y="865.1111111111111" as="targetPoint" />
            <mxPoint x="-100" y="865" as="sourcePoint" />
          </mxGeometry>
        </mxCell>
        <mxCell id="B9qtQq5T444P4j3lDMwM-30" value="CHECA_FLA_GANHA + DEF" style="verticalLabelPosition=bottom;shadow=0;dashed=0;align=center;html=1;verticalAlign=top;shape=mxgraph.electrical.logic_gates.logic_gate;operation=and;rounded=1;" vertex="1" parent="1">
          <mxGeometry x="-96" y="820" width="100" height="60" as="geometry" />
        </mxCell>
        <mxCell id="B9qtQq5T444P4j3lDMwM-31" value="FLA" style="text;html=1;align=center;verticalAlign=middle;whiteSpace=wrap;rounded=1;" vertex="1" parent="1">
          <mxGeometry x="-340" y="990" width="60" height="30" as="geometry" />
        </mxCell>
        <mxCell id="B9qtQq5T444P4j3lDMwM-32" value="FLU" style="text;html=1;align=center;verticalAlign=middle;whiteSpace=wrap;rounded=1;" vertex="1" parent="1">
          <mxGeometry x="-260" y="990" width="60" height="30" as="geometry" />
        </mxCell>
        <mxCell id="B9qtQq5T444P4j3lDMwM-33" value="GAB" style="text;html=1;align=center;verticalAlign=middle;whiteSpace=wrap;rounded=1;" vertex="1" parent="1">
          <mxGeometry x="-300" y="990" width="60" height="30" as="geometry" />
        </mxCell>
        <mxCell id="B9qtQq5T444P4j3lDMwM-34" value="DEF" style="text;html=1;align=center;verticalAlign=middle;whiteSpace=wrap;rounded=1;" vertex="1" parent="1">
          <mxGeometry x="-221" y="990" width="60" height="30" as="geometry" />
        </mxCell>
        <mxCell id="B9qtQq5T444P4j3lDMwM-39" style="edgeStyle=orthogonalEdgeStyle;rounded=1;orthogonalLoop=1;jettySize=auto;html=1;exitX=0;exitY=0.75;exitDx=0;exitDy=0;exitPerimeter=0;endArrow=oval;endFill=1;" edge="1" parent="1" source="B9qtQq5T444P4j3lDMwM-38">
          <mxGeometry relative="1" as="geometry">
            <mxPoint x="-310" y="457.16666666666674" as="targetPoint" />
            <mxPoint x="-100" y="457.5" as="sourcePoint" />
          </mxGeometry>
        </mxCell>
        <mxCell id="B9qtQq5T444P4j3lDMwM-40" style="edgeStyle=orthogonalEdgeStyle;rounded=1;orthogonalLoop=1;jettySize=auto;html=1;endArrow=oval;endFill=1;exitX=0;exitY=0.25;exitDx=0;exitDy=0;exitPerimeter=0;" edge="1" parent="1" source="B9qtQq5T444P4j3lDMwM-38">
          <mxGeometry relative="1" as="geometry">
            <mxPoint x="-269.9999999999998" y="427.16666666666674" as="targetPoint" />
            <mxPoint x="-100" y="428" as="sourcePoint" />
          </mxGeometry>
        </mxCell>
        <mxCell id="B9qtQq5T444P4j3lDMwM-41" style="edgeStyle=orthogonalEdgeStyle;rounded=1;orthogonalLoop=1;jettySize=auto;html=1;exitX=1;exitY=0.5;exitDx=0;exitDy=0;exitPerimeter=0;entryX=0;entryY=0.375;entryDx=0;entryDy=0;entryPerimeter=0;endArrow=none;endFill=0;" edge="1" parent="1" source="B9qtQq5T444P4j3lDMwM-38" target="B9qtQq5T444P4j3lDMwM-69">
          <mxGeometry relative="1" as="geometry">
            <mxPoint x="534" y="442.5" as="targetPoint" />
            <Array as="points">
              <mxPoint x="144" y="443" />
              <mxPoint x="144" y="443" />
            </Array>
          </mxGeometry>
        </mxCell>
        <mxCell id="B9qtQq5T444P4j3lDMwM-38" value="CHECA_FLA_GANHA + GAB" style="verticalLabelPosition=bottom;shadow=0;dashed=0;align=center;html=1;verticalAlign=top;shape=mxgraph.electrical.logic_gates.logic_gate;operation=and;rounded=1;" vertex="1" parent="1">
          <mxGeometry x="-96" y="412.5" width="100" height="60" as="geometry" />
        </mxCell>
        <mxCell id="B9qtQq5T444P4j3lDMwM-52" style="edgeStyle=orthogonalEdgeStyle;rounded=1;orthogonalLoop=1;jettySize=auto;html=1;endArrow=oval;endFill=1;" edge="1" parent="1">
          <mxGeometry relative="1" as="geometry">
            <mxPoint x="-310" y="564.6470588235295" as="targetPoint" />
            <mxPoint x="-96" y="565" as="sourcePoint" />
          </mxGeometry>
        </mxCell>
        <mxCell id="B9qtQq5T444P4j3lDMwM-53" style="edgeStyle=orthogonalEdgeStyle;rounded=1;orthogonalLoop=1;jettySize=auto;html=1;exitX=0;exitY=0.25;exitDx=0;exitDy=0;exitPerimeter=0;endArrow=oval;endFill=1;" edge="1" parent="1" source="B9qtQq5T444P4j3lDMwM-51">
          <mxGeometry relative="1" as="geometry">
            <mxPoint x="-191" y="535" as="targetPoint" />
            <mxPoint x="-101" y="535" as="sourcePoint" />
          </mxGeometry>
        </mxCell>
        <mxCell id="B9qtQq5T444P4j3lDMwM-54" style="edgeStyle=orthogonalEdgeStyle;rounded=1;orthogonalLoop=1;jettySize=auto;html=1;exitX=1;exitY=0.5;exitDx=0;exitDy=0;exitPerimeter=0;entryX=0;entryY=0.625;entryDx=0;entryDy=0;entryPerimeter=0;endArrow=none;endFill=0;" edge="1" parent="1" source="B9qtQq5T444P4j3lDMwM-51" target="B9qtQq5T444P4j3lDMwM-69">
          <mxGeometry relative="1" as="geometry">
            <mxPoint x="534" y="462.5" as="targetPoint" />
            <Array as="points">
              <mxPoint x="94" y="550" />
              <mxPoint x="94" y="458" />
            </Array>
          </mxGeometry>
        </mxCell>
        <mxCell id="B9qtQq5T444P4j3lDMwM-51" value="CHECA_FLA_GANHA + DEF" style="verticalLabelPosition=bottom;shadow=0;dashed=0;align=center;html=1;verticalAlign=top;shape=mxgraph.electrical.logic_gates.logic_gate;operation=and;rounded=1;" vertex="1" parent="1">
          <mxGeometry x="-96" y="520" width="100" height="60" as="geometry" />
        </mxCell>
        <mxCell id="B9qtQq5T444P4j3lDMwM-60" style="edgeStyle=orthogonalEdgeStyle;rounded=1;orthogonalLoop=1;jettySize=auto;html=1;exitX=0.5;exitY=1;exitDx=0;exitDy=0;entryX=0.5;entryY=0;entryDx=0;entryDy=0;" edge="1" parent="1" source="B9qtQq5T444P4j3lDMwM-61" target="B9qtQq5T444P4j3lDMwM-62">
          <mxGeometry relative="1" as="geometry">
            <mxPoint x="-156" y="960" as="targetPoint" />
          </mxGeometry>
        </mxCell>
        <mxCell id="B9qtQq5T444P4j3lDMwM-61" value="EMP" style="text;html=1;align=center;verticalAlign=middle;whiteSpace=wrap;rounded=1;" vertex="1" parent="1">
          <mxGeometry x="-186" y="20" width="60" height="30" as="geometry" />
        </mxCell>
        <mxCell id="B9qtQq5T444P4j3lDMwM-62" value="EMP" style="text;html=1;align=center;verticalAlign=middle;whiteSpace=wrap;rounded=1;" vertex="1" parent="1">
          <mxGeometry x="-186" y="990" width="60" height="30" as="geometry" />
        </mxCell>
        <mxCell id="B9qtQq5T444P4j3lDMwM-75" style="edgeStyle=orthogonalEdgeStyle;rounded=1;orthogonalLoop=1;jettySize=auto;html=1;exitX=0;exitY=0.25;exitDx=0;exitDy=0;exitPerimeter=0;endArrow=oval;endFill=1;" edge="1" parent="1" source="B9qtQq5T444P4j3lDMwM-68">
          <mxGeometry relative="1" as="geometry">
            <mxPoint x="-230" y="785.1111111111111" as="targetPoint" />
            <mxPoint x="190" y="784.8899999999999" as="sourcePoint" />
          </mxGeometry>
        </mxCell>
        <mxCell id="B9qtQq5T444P4j3lDMwM-76" value="FLU_GANHA" style="edgeLabel;html=1;align=center;verticalAlign=middle;resizable=0;points=[];rounded=1;" vertex="1" connectable="0" parent="B9qtQq5T444P4j3lDMwM-75">
          <mxGeometry x="0.1284" y="1" relative="1" as="geometry">
            <mxPoint as="offset" />
          </mxGeometry>
        </mxCell>
        <mxCell id="B9qtQq5T444P4j3lDMwM-68" value="" style="verticalLabelPosition=bottom;shadow=0;dashed=0;align=center;html=1;verticalAlign=top;shape=mxgraph.electrical.logic_gates.logic_gate;operation=or;numInputs=2;rounded=1;" vertex="1" parent="1">
          <mxGeometry x="194" y="769.89" width="100" height="60" as="geometry" />
        </mxCell>
        <mxCell id="B9qtQq5T444P4j3lDMwM-70" style="edgeStyle=orthogonalEdgeStyle;rounded=1;orthogonalLoop=1;jettySize=auto;html=1;exitX=0;exitY=0.875;exitDx=0;exitDy=0;exitPerimeter=0;endArrow=oval;endFill=1;" edge="1" parent="1" source="B9qtQq5T444P4j3lDMwM-69">
          <mxGeometry relative="1" as="geometry">
            <mxPoint x="-310" y="640" as="targetPoint" />
            <mxPoint x="200" y="472.5" as="sourcePoint" />
            <Array as="points">
              <mxPoint x="130" y="473" />
              <mxPoint x="130" y="640" />
            </Array>
          </mxGeometry>
        </mxCell>
        <mxCell id="B9qtQq5T444P4j3lDMwM-71" value="FLA_GANHA" style="edgeLabel;html=1;align=center;verticalAlign=middle;resizable=0;points=[];rounded=1;" connectable="0" vertex="1" parent="B9qtQq5T444P4j3lDMwM-70">
          <mxGeometry x="0.5095" y="1" relative="1" as="geometry">
            <mxPoint x="94" as="offset" />
          </mxGeometry>
        </mxCell>
        <mxCell id="B9qtQq5T444P4j3lDMwM-69" value="" style="verticalLabelPosition=bottom;shadow=0;dashed=0;align=center;html=1;verticalAlign=top;shape=mxgraph.electrical.logic_gates.logic_gate;operation=or;numInputs=4;rounded=1;" vertex="1" parent="1">
          <mxGeometry x="204" y="420" width="100" height="60" as="geometry" />
        </mxCell>
        <mxCell id="B9qtQq5T444P4j3lDMwM-74" style="edgeStyle=orthogonalEdgeStyle;rounded=1;orthogonalLoop=1;jettySize=auto;html=1;exitX=1;exitY=0.5;exitDx=0;exitDy=0;exitPerimeter=0;entryX=0;entryY=0.75;entryDx=0;entryDy=0;entryPerimeter=0;endArrow=none;endFill=0;" edge="1" parent="1" source="B9qtQq5T444P4j3lDMwM-30" target="B9qtQq5T444P4j3lDMwM-68">
          <mxGeometry relative="1" as="geometry" />
        </mxCell>
      </root>
    </mxGraphModel>
  </diagram>
</mxfile>
